<svg width="21" height="18" viewBox="0 0 21 18" fill="none" xmlns="http://www.w3.org/2000/svg">
<path d="M4.5 14H9.5V12H4.5V14ZM14.5 14H16.5V12H14.5V14ZM4.5 10H9.5V8H4.5V10ZM14.5 10H16.5V4H14.5V10ZM4.5 6H9.5V4H4.5V6ZM2.5 18C1.95 18 1.47917 17.8042 1.0875 17.4125C0.695833 17.0208 0.5 16.55 0.5 16V2C0.5 1.45 0.695833 0.979167 1.0875 0.5875C1.47917 0.195833 1.95 0 2.5 0H18.5C19.05 0 19.5208 0.195833 19.9125 0.5875C20.3042 0.979167 20.5 1.45 20.5 2V16C20.5 16.55 20.3042 17.0208 19.9125 17.4125C19.5208 17.8042 19.05 18 18.5 18H2.5ZM2.5 16H18.5V2H2.5V16Z" fill="#00004F"/>
</svg>
